<svg width="19" height="19" viewBox="0 0 19 19" fill="none" xmlns="http://www.w3.org/2000/svg">
<path d="M3.52347 11.0106L9.02762 16.1812L9.02763 16.1812C9.14938 16.2956 9.21025 16.3528 9.27463 16.3853C9.41637 16.4568 9.58367 16.4568 9.72541 16.3853C9.78979 16.3528 9.85066 16.2956 9.97241 16.1812L9.97242 16.1812L15.4766 11.0106C17.0252 9.55584 17.2133 7.16185 15.9108 5.4831L15.6659 5.16744C14.1077 3.15917 10.9801 3.49597 9.8853 5.78993C9.73064 6.11397 9.2694 6.11397 9.11474 5.78993C8.0199 3.49597 4.8923 3.15917 3.33416 5.16744L3.08925 5.4831C1.78677 7.16185 1.97483 9.55584 3.52347 11.0106Z" fill="#EB5757" stroke="#EB5757" stroke-width="2"/>
</svg>
