<svg width="19" height="19" viewBox="0 0 19 19" fill="none" xmlns="http://www.w3.org/2000/svg">
<path d="M3.52347 11.0107L9.02762 16.1813L9.02763 16.1813C9.14938 16.2957 9.21025 16.3529 9.27463 16.3854C9.41637 16.457 9.58367 16.457 9.72541 16.3854C9.78979 16.3529 9.85066 16.2957 9.97241 16.1813L9.97242 16.1813L15.4766 11.0107C17.0252 9.55597 17.2133 7.16197 15.9108 5.48322L15.6659 5.16756C14.1077 3.15929 10.9801 3.49609 9.8853 5.79005C9.73064 6.11409 9.2694 6.11409 9.11474 5.79005C8.0199 3.49609 4.8923 3.15929 3.33416 5.16756L3.08925 5.48322C1.78677 7.16197 1.97483 9.55596 3.52347 11.0107Z" fill="#EB5757" stroke="#EB5757" stroke-width="2"/>
</svg>
