<svg width="19" height="19" viewBox="0 0 19 19" fill="none" xmlns="http://www.w3.org/2000/svg">
<path d="M3.52345 11.0107L9.02761 16.1813L9.02762 16.1813C9.14936 16.2957 9.21024 16.3529 9.27461 16.3854C9.41635 16.457 9.58366 16.457 9.7254 16.3854C9.78977 16.3529 9.85065 16.2957 9.9724 16.1813L9.9724 16.1813L15.4766 11.0107C17.0252 9.55597 17.2133 7.16197 15.9108 5.48322L15.6659 5.16756C14.1077 3.15929 10.9801 3.49609 9.88528 5.79005C9.73063 6.11409 9.26938 6.11409 9.11473 5.79005C8.01988 3.49609 4.89229 3.15929 3.33415 5.16756L3.08924 5.48322C1.78675 7.16197 1.97481 9.55596 3.52345 11.0107Z" fill="#EB5757" stroke="#EB5757" stroke-width="2"/>
</svg>
