<svg width="1440" height="152" viewBox="0 0 1440 152" fill="none" xmlns="http://www.w3.org/2000/svg">
<rect width="1440" height="152" fill="#111111"/>
<g clip-path="url(#clip0_18_25)">
<path fill-rule="evenodd" clip-rule="evenodd" d="M174.732 85.7484H171.072V80.8532H168.518V93.0893H171.072V87.6154H174.73L174.731 93.0893H177.286V80.8532H174.732V85.7484ZM235.664 80.8532V82.7207H239.133V93.0893H241.686V82.7207H245.154V80.8532H235.664ZM222.18 80.8532H219.627V93.0893H226.931V91.2212H222.179L222.18 80.8532ZM192.959 91.054C192.921 91.1812 192.827 91.2159 192.693 91.2159C192.563 91.2159 192.464 91.1657 192.423 91.0481L189.734 80.8537H186.755L189.845 92.0158C189.995 92.7506 190.485 93.091 191.178 93.091H193.534C194.227 93.091 194.675 92.7372 194.849 92.0335L197.864 80.8537H195.609L192.959 91.054ZM159.923 82.7646L159.921 91.1774C159.921 92.5384 160.62 93.0904 161.828 93.0904L167.539 93.0893V91.218H163.409C162.7 91.218 162.473 91.046 162.473 90.2829L162.476 83.6548C162.476 82.9179 162.647 82.7207 163.41 82.7207H167.539V80.8537H161.834C160.528 80.8532 159.923 81.5275 159.923 82.7646ZM181.372 90.2829L181.373 87.6154H186.449V85.7484H181.377L181.376 83.6548C181.376 82.9462 181.533 82.7207 182.311 82.7207H186.503V80.8537L180.732 80.8558C179.412 80.8558 178.822 81.5142 178.822 82.7646L178.821 91.1774C178.821 92.4695 179.45 93.0904 180.728 93.0904L187.034 93.0893V91.218H182.308C181.599 91.218 181.372 91.0593 181.372 90.2829ZM205.316 87.9189C206.498 87.9189 207.224 87.3814 207.224 86.0059L207.222 82.7646C207.222 81.4869 206.619 80.8537 205.313 80.8537H198.196V93.0893H200.75V82.7207H203.733C204.524 82.7207 204.667 82.9462 204.667 83.6548L204.671 85.1451C204.671 85.8676 204.471 86.0813 203.736 86.0813L202.34 86.0824C201.798 86.0824 201.494 86.4089 201.494 86.9363C201.494 87.2013 201.629 87.3931 201.735 87.5834L204.959 93.0899H208.119L204.743 87.9237L205.316 87.9189ZM216.17 80.8553H210.544C209.197 80.8553 208.635 81.5409 208.635 82.764L208.633 91.1769C208.633 92.5662 209.373 93.0899 210.541 93.0899H216.171C217.394 93.0899 218.081 92.5106 218.081 91.1769L218.079 82.764C218.079 81.5142 217.489 80.8553 216.17 80.8553ZM214.593 91.218H212.121C211.385 91.218 211.185 91.0187 211.185 90.2829V83.6548C211.185 83.0152 211.273 82.7207 212.121 82.7207H214.594C215.261 82.7207 215.526 82.8356 215.526 83.6548L215.528 90.2829C215.528 91.0727 215.287 91.218 214.593 91.218ZM229.979 90.2829L229.98 87.6154H235.055V85.7484H229.983V83.6548C229.983 82.9462 230.14 82.7207 230.917 82.7207H235.109V80.8537L229.338 80.8558C228.018 80.8558 227.428 81.5142 227.428 82.7646L227.427 91.1774C227.427 92.4695 228.057 93.0904 229.335 93.0904L235.641 93.0893V91.218H230.915C230.206 91.218 229.979 91.0593 229.979 90.2829ZM224.887 58.6315L211.286 58.6331C210.939 58.6331 210.711 58.5295 210.711 58.0523V56.0351C210.711 55.4532 210.398 55.1454 209.829 55.1454L194.26 55.1459C193.678 55.1459 193.379 55.4735 193.379 56.0297L193.378 58.0469C193.378 58.4728 193.177 58.6278 192.803 58.6278L183.89 58.6304C183.208 58.6304 182.809 58.9559 182.603 59.3834L178.263 67.8662C178.206 67.9774 178.175 68.1006 178.175 68.2258C178.175 68.562 178.395 68.9953 179.002 68.9953L192.802 68.9937C193.227 68.9937 193.377 69.1871 193.377 69.5746L193.375 71.5917C193.375 72.1993 193.729 72.4761 194.259 72.4761L202.044 72.4756L209.828 72.475C210.358 72.475 210.71 72.2185 210.71 71.5971L210.709 69.5799C210.709 69.1674 210.885 68.9991 211.284 68.9991L219.937 68.9969C220.534 68.9969 220.963 68.8398 221.262 68.2841L225.553 59.9011C225.647 59.72 225.712 59.6169 225.712 59.4015C225.714 58.8319 225.223 58.6315 224.887 58.6315ZM221.46 62.0108L219.391 66.0564C219.262 66.2909 219.031 66.3011 218.869 66.3011H208.601C208.175 66.3011 208.02 66.4945 208.02 66.8814L208.018 69.2085C208.018 69.5954 207.849 69.7803 207.435 69.7803H202.045L196.652 69.7814C196.291 69.7814 196.07 69.6547 196.07 69.2026L196.069 66.8755C196.069 66.4502 195.874 66.2984 195.488 66.2984H182.9C182.591 66.2984 182.377 66.1034 182.377 65.833C182.377 65.755 182.397 65.6807 182.431 65.6161L184.499 61.5705C184.578 61.4267 184.708 61.3284 185.021 61.3284L195.488 61.3289C195.849 61.3289 196.073 61.1836 196.073 60.7449L196.073 58.4183C196.073 58.0053 196.253 57.8396 196.653 57.8396L207.438 57.8391C207.825 57.8391 208.018 58.0111 208.018 58.4236L208.017 60.7502C208.017 61.1499 208.203 61.3273 208.602 61.3273H220.991C221.385 61.3273 221.514 61.587 221.514 61.7928C221.513 61.8687 221.494 61.9433 221.46 62.0108Z" fill="white"/>
<path fill-rule="evenodd" clip-rule="evenodd" d="M212.734 56.9338C212.734 56.7276 212.566 56.6805 212.393 56.6805H211.976V57.6376H212.111V57.2186H212.297L212.571 57.6376H212.721L212.436 57.2047C212.607 57.2005 212.734 57.1219 212.734 56.9338ZM212.362 57.1043H212.111V56.7949H212.367C212.467 56.7949 212.6 56.8061 212.6 56.9312C212.599 57.0252 212.555 57.1043 212.362 57.1043Z" fill="white"/>
<path fill-rule="evenodd" clip-rule="evenodd" d="M212.295 56.3044C212.182 56.3041 212.071 56.3259 211.967 56.3687C211.863 56.4114 211.769 56.4742 211.689 56.5535C211.609 56.6328 211.546 56.7271 211.503 56.8309C211.46 56.9347 211.437 57.0459 211.437 57.1583C211.437 57.6296 211.816 58.0117 212.295 58.0117C212.768 58.0117 213.149 57.6334 213.149 57.1578C213.149 56.687 212.768 56.3044 212.295 56.3044ZM212.295 57.8771C212.107 57.8719 211.929 57.7939 211.799 57.6595C211.668 57.5251 211.595 57.345 211.595 57.1575C211.595 56.97 211.668 56.7899 211.799 56.6556C211.929 56.5212 212.107 56.4431 212.295 56.438C212.484 56.4383 212.666 56.5137 212.8 56.6478C212.934 56.7818 213.01 56.9635 213.01 57.153C213.01 57.5543 212.691 57.8771 212.295 57.8771ZM247.042 81.5351C247.042 81.3293 246.874 81.2823 246.7 81.2823H246.284V82.2383H246.419V81.8199H246.605L246.878 82.2383H247.028L246.744 81.806C246.914 81.8022 247.042 81.7226 247.042 81.5351ZM246.669 81.705H246.418V81.3961H246.674C246.775 81.3961 246.907 81.4073 246.907 81.5329C246.907 81.627 246.862 81.705 246.669 81.705Z" fill="white"/>
<path fill-rule="evenodd" clip-rule="evenodd" d="M246.602 80.9055C246.127 80.9055 245.744 81.2886 245.744 81.7594C245.744 82.2302 246.123 82.6133 246.602 82.6133C247.075 82.6133 247.456 82.2345 247.456 81.7594C247.456 81.2886 247.075 80.9055 246.602 80.9055ZM246.602 82.4787C246.411 82.4787 246.228 82.4029 246.093 82.268C245.959 82.1331 245.883 81.9502 245.883 81.7594C245.883 81.5687 245.959 81.3857 246.093 81.2508C246.228 81.116 246.411 81.0402 246.602 81.0402C246.792 81.0405 246.973 81.1159 247.107 81.2499C247.241 81.3839 247.317 81.5656 247.317 81.7551C247.317 82.1559 246.998 82.4787 246.602 82.4787Z" fill="white"/>
</g>
<path fill-rule="evenodd" clip-rule="evenodd" d="M494.483 57.2525L486 42.6554L477.633 57.2525L486 71.9659L494.483 57.2525Z" fill="white"/>
<path d="M486 42.6554L477.633 57.2525L486 71.9659L494.483 57.2525L486 42.6554Z" stroke="white" stroke-width="2" stroke-miterlimit="2.613" stroke-linecap="round" stroke-linejoin="round"/>
<path fill-rule="evenodd" clip-rule="evenodd" d="M460.551 86.5635H477.517L486 71.9659H469.383L460.551 86.5635Z" fill="white"/>
<path d="M477.517 86.5635L486 71.9659H469.383L460.551 86.5635H477.517Z" stroke="white" stroke-width="2" stroke-miterlimit="2.613" stroke-linecap="round" stroke-linejoin="round"/>
<path fill-rule="evenodd" clip-rule="evenodd" d="M502.849 71.9659H486L494.599 86.5635H511.449L502.849 71.9659Z" fill="white"/>
<path d="M486 71.9659L494.599 86.5635H511.449L502.849 71.9659H486Z" stroke="white" stroke-width="2" stroke-miterlimit="2.613" stroke-linecap="round" stroke-linejoin="round"/>
<path fill-rule="evenodd" clip-rule="evenodd" d="M470.428 90.0391H468.802L467.64 93.0505L466.361 89.9237H464.851V96.9901H466.129V92.4715L467.64 95.8318L469.034 92.4715V96.9901H470.428V90.0391ZM472.752 96.9901V90.0391H471.358V96.9901H472.752ZM473.218 91.0824H474.612V96.9901H476.006V91.0824H477.285V90.0391H473.218V91.0824ZM494.25 90.0391H492.973V96.9901H494.25V90.0391ZM505.057 89.9237H503.663V92.7035H501.106V90.0391H499.829V96.9901H501.106V93.8618H503.663V96.9901H505.057V89.9237ZM507.265 90.0391H505.987V96.9901H507.265V90.0391ZM481.352 90.8489C481.004 90.2696 480.422 89.9237 479.609 89.9237C478.795 89.8072 478.214 90.1542 477.749 90.7335C477.168 91.5448 477.285 92.2407 477.866 93.0505L478.562 93.5144C479.143 93.7449 479.376 93.9784 479.841 94.2088C480.19 94.325 480.422 94.5577 480.422 94.7882C480.538 95.3675 480.422 95.716 479.841 95.8314C479.376 95.9469 478.912 95.8314 478.679 95.4826C478.562 95.2521 478.446 95.0201 478.446 94.6727H477.168C477.168 95.0201 477.168 95.3671 477.4 95.8314C477.633 96.4108 478.098 96.8747 478.795 97.1052C479.376 97.2206 480.189 97.1052 480.887 96.6413C481.585 96.1788 481.816 95.4826 481.7 94.6727C481.585 94.0934 481.119 93.6295 480.538 93.2821C480.306 93.1656 479.841 92.9347 479.376 92.5862C478.795 92.3557 478.679 92.1238 478.679 91.7764C478.562 91.3125 478.795 91.082 479.376 91.082C479.957 90.9655 480.306 91.3125 480.422 92.1238H481.585C481.585 91.6617 481.585 91.1974 481.352 90.8489ZM486.814 94.6731V89.9237H485.535V94.7882C485.535 95.4826 485.186 95.9469 484.49 95.9469C483.792 95.9469 483.56 95.4829 483.56 94.7882V89.9237H482.282V94.6731C482.166 96.2957 482.863 97.1055 484.49 97.1055C486 97.2206 486.814 96.4108 486.814 94.6731ZM489.951 90.0391L487.743 89.9237V96.9901H490.532C491.229 96.9901 491.694 96.7582 491.926 96.1788C492.507 95.4829 492.507 94.7882 492.043 93.9784C491.926 93.7449 491.693 93.5144 491.229 93.2825C491.81 92.9351 492.043 92.5866 492.158 92.2407C492.391 91.6614 492.275 91.1974 491.81 90.7335C491.462 90.1542 490.764 89.9237 489.951 90.0391ZM489.021 91.0824H489.951C490.415 91.0824 490.764 91.3129 490.764 91.8922C490.881 92.3561 490.647 92.5866 490.183 92.7035L489.486 92.82V93.8618H490.068C490.764 93.9784 490.996 94.325 490.996 94.9036C490.996 95.5995 490.764 95.8314 490.068 95.8314H489.021V91.0824ZM471.242 100.002V107.068H472.52V102.551L474.031 105.795L475.425 102.551V107.068H476.819V100.002H475.193L474.031 103.13L472.752 100.002H471.242ZM486.348 101.045V100.002H482.166V101.045H483.559V106.953H484.954V101.045H486.348ZM493.205 101.16H493.901C494.715 101.16 495.063 101.509 495.063 102.203C495.063 103.013 494.599 103.362 493.669 103.362L495.412 106.953H496.923L495.296 104.057C495.296 104.057 495.296 103.941 495.413 103.941H495.529C496.226 103.592 496.574 102.898 496.458 101.972C496.342 100.581 495.529 99.8865 493.786 100.002H491.926V106.953H493.205L493.205 101.16Z" fill="white"/>
<path fill-rule="evenodd" clip-rule="evenodd" d="M477.749 101.276C477.052 102.434 476.936 103.71 477.285 104.985C477.749 106.374 478.562 107.068 479.841 107.068C481.003 107.068 481.933 106.489 482.282 105.1C482.862 103.826 482.862 102.551 482.166 101.392C481.585 100.35 480.887 99.8864 479.957 99.8864C479.028 99.8864 478.214 100.35 477.749 101.276ZM478.679 104.868C478.33 104.057 478.33 103.247 478.679 102.203C478.795 101.509 479.26 101.16 479.957 101.16C480.538 101.16 481.003 101.509 481.119 102.319C481.467 103.478 481.351 104.405 481.003 105.215C480.771 105.679 480.422 106.027 479.841 106.027C479.26 106.027 478.912 105.679 478.679 104.868ZM486 105.1C486.465 106.489 487.278 107.185 488.557 107.068C489.719 107.185 490.648 106.489 491.113 105.215C491.578 103.941 491.578 102.668 490.881 101.392C490.3 100.35 489.602 99.8868 488.789 100.002C487.743 100.002 487.046 100.35 486.465 101.276C485.767 102.551 485.651 103.826 486 105.1ZM487.394 102.203C487.626 101.624 487.975 101.276 488.673 101.276C489.253 101.16 489.719 101.624 489.951 102.434C490.183 103.478 490.183 104.405 489.834 105.215C489.486 105.795 489.138 106.027 488.557 106.027C488.092 106.027 487.627 105.679 487.395 104.985C487.046 104.172 487.046 103.247 487.394 102.203ZM499.015 90.9654C498.667 90.2695 498.086 89.9237 497.272 90.0391C496.458 89.9237 495.877 90.1545 495.412 90.8489C494.831 91.5448 494.948 92.3561 495.529 93.0508C495.645 93.2828 495.877 93.3997 496.225 93.6302L497.504 94.2095C497.853 94.4415 498.085 94.6735 498.085 94.9039C498.201 95.3678 498.085 95.7167 497.504 95.9472C497.039 96.0626 496.69 95.9472 496.342 95.4833C496.225 95.3678 496.11 95.0208 496.11 94.7889H494.831C494.831 95.1378 494.948 95.4833 495.063 95.8321C495.296 96.5265 495.761 96.9908 496.458 97.1059C497.039 97.3378 497.853 97.2213 498.55 96.7585C499.247 96.2961 499.478 95.5998 499.363 94.7889C499.247 94.2095 498.782 93.7456 498.201 93.3997L497.039 92.7038C496.458 92.4719 496.342 92.1245 496.342 91.8925C496.342 91.4286 496.458 91.1981 497.039 91.0827C497.621 90.9662 497.969 91.3132 498.086 92.2414H499.248C499.248 91.6617 499.248 91.3128 499.015 90.9654ZM497.155 100.813C496.69 101.624 496.69 102.319 497.388 103.13L497.969 103.593L499.248 104.288C499.596 104.405 499.829 104.636 499.829 104.868C499.945 105.447 499.829 105.794 499.248 106.027C498.782 106.027 498.434 106.027 498.201 105.564C497.969 105.331 497.853 105.1 497.853 104.751H496.573C496.573 105.1 496.69 105.447 496.806 105.91C497.039 106.489 497.504 106.953 498.201 107.185C498.782 107.302 499.596 107.185 500.293 106.723C500.99 106.259 501.339 105.564 501.106 104.752C500.99 104.172 500.641 103.826 499.944 103.362L498.782 102.668C498.201 102.435 498.086 102.204 498.086 101.855C498.086 101.393 498.202 101.161 498.782 101.161C499.364 101.045 499.829 101.393 499.829 102.204H500.99C501.107 101.74 500.99 101.276 500.758 100.93C500.41 100.35 499.829 100.003 499.015 100.003C498.201 99.8864 497.62 100.234 497.155 100.813Z" fill="white"/>
<g clip-path="url(#clip1_18_25)">
<path d="M916.615 96.8725H919.666V97.5716H916.615V96.8725ZM865.865 92.6326L865.592 99.6493V99.7712C865.592 100.365 865.769 100.488 866.726 100.555V100.88C866.029 100.827 865.755 100.813 865.373 100.813C864.99 100.813 864.717 100.827 864.007 100.88V100.555C864.963 100.488 865.1 100.379 865.127 99.6493L865.414 93.0118V92.9319C865.414 92.3089 865.223 92.1741 864.281 92.1203V91.7816C864.813 91.8225 865.018 91.8361 865.4 91.8361C865.834 91.84 866.267 91.8177 866.698 91.7694L869.238 98.6087L871.819 91.7694C872.434 91.8225 872.721 91.8361 873.131 91.8361C873.471 91.8361 873.69 91.8225 874.209 91.7816V92.1203C873.281 92.1741 873.075 92.3089 873.075 92.9172V93.0118L873.225 99.6493C873.24 100.379 873.362 100.487 874.346 100.555V100.88C873.486 100.799 873.157 100.771 872.639 100.771C872.119 100.771 871.791 100.797 870.931 100.88V100.555C871.859 100.501 872.064 100.352 872.064 99.7177V99.651L871.943 92.648L869.688 98.6764L869.525 99.123L869.334 99.6224L869.155 100.138L869.005 100.583H868.8L868.65 100.151L868.459 99.6224L868.268 99.0958L868.104 98.623L865.865 92.6326ZM876.12 96.9989C876.257 95.4447 876.775 94.6481 877.649 94.6481C878.537 94.6481 878.988 95.4048 879.069 96.9989H876.12ZM877.896 100.54C876.653 100.54 876.106 99.5941 876.093 97.4853H880.164C880.136 95.4038 879.275 94.2951 877.663 94.2951C876.025 94.2951 875 95.6067 875 97.6886C875 99.7701 876.026 100.986 877.787 100.986C879.125 100.986 880 100.161 880.176 98.7693H879.629C879.466 99.9182 878.865 100.54 877.896 100.54ZM880.976 94.7952V94.5525C881.754 94.4851 882.219 94.4041 882.779 94.2413C882.847 94.7421 882.874 94.9575 882.901 95.3636V95.5127C883.203 94.7421 883.789 94.2955 884.5 94.2955C885.182 94.2955 885.688 94.7421 885.688 95.3916C885.688 95.7837 885.456 96.04 885.114 96.04C884.8 96.04 884.555 95.8504 884.555 95.5808C884.555 95.5539 884.569 95.5009 884.581 95.4446L884.608 95.3102V95.1873C884.608 94.998 884.444 94.8632 884.198 94.8632C883.489 94.8632 883.039 95.7146 883.039 97.053V99.8777C883.039 100.46 883.174 100.568 884.008 100.608V100.879C883.256 100.812 882.969 100.797 882.491 100.797C882 100.797 881.713 100.812 880.963 100.879V100.608C881.795 100.568 881.945 100.46 881.945 99.8777V95.459C881.932 94.8772 881.863 94.8105 881.154 94.7962L880.976 94.7952ZM890.913 94.1746V96.4056H890.611C890.365 95.2285 889.861 94.6611 889.028 94.6611C888.003 94.6611 887.403 95.7568 887.403 97.6896C887.403 99.5815 887.935 100.541 888.986 100.541C889.833 100.541 890.338 99.9471 890.502 98.7581H891.062C890.884 100.205 890.106 100.988 888.877 100.988C887.293 100.988 886.215 99.6632 886.215 97.6907C886.215 95.6755 887.307 94.2972 888.918 94.2972C889.506 94.2972 889.874 94.4463 890.312 94.8653L890.68 94.1757H890.913L890.913 94.1746ZM893.155 96.9989C893.292 95.4447 893.81 94.6481 894.685 94.6481C895.572 94.6481 896.023 95.4048 896.104 96.9989H893.155ZM894.931 100.54C893.688 100.54 893.142 99.5941 893.128 97.4853H897.197C897.17 95.4038 896.309 94.2951 894.699 94.2951C893.059 94.2951 892.034 95.6067 892.034 97.6886C892.034 99.7701 893.058 100.986 894.822 100.986C896.16 100.986 897.034 100.161 897.211 98.7693H896.665C896.501 99.9182 895.9 100.54 894.931 100.54ZM900.98 100.622C899.996 100.622 899.478 99.6077 899.478 97.676C899.478 95.717 899.955 94.7567 900.939 94.7567C901.95 94.7567 902.469 95.7837 902.469 97.772C902.469 99.6489 901.963 100.622 900.98 100.622ZM903.547 99.4726V91.6688C902.864 91.8497 902.25 91.9569 901.486 92.0379V92.2684C902.346 92.2684 902.455 92.363 902.455 93.0656V95.4307C901.95 94.6202 901.554 94.3761 900.816 94.3761C899.355 94.3761 898.33 95.7411 898.33 97.6875C898.33 99.6343 899.368 100.998 900.857 100.998C901.635 100.998 902.168 100.647 902.55 99.8906C902.605 100.404 902.605 100.458 902.742 100.971C903.301 100.795 903.534 100.741 904.34 100.647L904.544 100.62V100.391C903.629 100.364 903.547 100.297 903.547 99.4726ZM906.182 96.9989C906.319 95.4447 906.837 94.6481 907.712 94.6481C908.6 94.6481 909.049 95.4048 909.131 96.9989H906.182ZM907.958 100.54C906.714 100.54 906.169 99.5941 906.155 97.4853H910.224C910.197 95.4038 909.337 94.2951 907.726 94.2951C906.086 94.2951 905.062 95.6067 905.062 97.6886C905.062 99.7701 906.086 100.986 907.848 100.986C909.187 100.986 910.061 100.161 910.237 98.7693H909.691C909.528 99.9182 908.926 100.54 907.958 100.54ZM911.384 101V98.7421L911.685 98.7292C911.93 99.9597 912.504 100.555 913.46 100.555C914.265 100.555 914.867 100.027 914.867 99.3392C914.867 98.8797 914.608 98.5692 913.937 98.271L913.419 98.0406L912.791 97.757C911.793 97.2978 911.479 96.9189 911.479 96.1347C911.479 95.0665 912.325 94.3377 913.528 94.3377C914.06 94.3377 914.457 94.4592 914.921 94.7686L915.152 94.2148H915.398V96.3099H915.084C914.96 95.2281 914.51 94.7155 913.65 94.7155C912.926 94.7155 912.365 95.2023 912.365 95.8375C912.365 96.3777 912.57 96.5544 913.813 97.0946L914.387 97.3387C915.424 97.7832 915.794 98.2169 915.794 99.0148C915.794 100.15 914.879 100.96 913.596 100.96C912.967 100.96 912.476 100.798 911.957 100.393L911.628 101H911.384ZM923.39 96.3365C924.113 96.3365 924.522 96.4587 924.837 96.7688C925.151 97.081 925.33 97.6617 925.33 98.3094C925.33 99.6612 924.646 100.419 923.431 100.419H922.939C922.215 100.419 922.093 100.31 922.093 99.7153V96.3354L923.39 96.3365ZM922.092 92.2405H923.253C924.4 92.2405 924.905 92.7957 924.905 94.0521C924.905 94.6736 924.755 95.1206 924.455 95.4708C924.154 95.8099 923.786 95.9168 923.022 95.9168H922.093V92.2401H922.092V92.2405ZM926.12 94.0248C926.12 93.3219 925.82 92.701 925.301 92.3078C924.837 91.9702 924.305 91.8221 923.416 91.8221H919.824V92.1598C920.808 92.2143 920.944 92.3222 920.944 93.052V99.6074C920.944 100.338 920.834 100.431 919.824 100.514V100.839H923.279C924.29 100.839 924.837 100.716 925.411 100.365C926.093 99.9325 926.544 99.1077 926.544 98.2577C926.544 97.5262 926.229 96.8645 925.697 96.4605C925.411 96.2443 925.11 96.121 924.618 96.0275C925.602 95.6608 926.12 94.9711 926.12 94.0248ZM928.773 96.9989C928.91 95.4447 929.429 94.6481 930.304 94.6481C931.191 94.6481 931.642 95.4048 931.723 96.9989H928.773ZM930.55 100.54C929.307 100.54 928.759 99.5941 928.746 97.4853H932.817C932.789 95.4038 931.928 94.2951 930.317 94.2951C928.678 94.2951 927.653 95.6067 927.653 97.6886C927.653 99.7701 928.678 100.986 930.439 100.986C931.777 100.986 932.652 100.161 932.829 98.7693H932.283C932.12 99.9182 931.519 100.54 930.55 100.54ZM933.539 94.8489V94.6202C934.331 94.5113 934.796 94.4041 935.341 94.2144C935.41 94.5266 935.452 94.8769 935.478 95.3905C935.97 94.66 936.529 94.3367 937.322 94.3367C938.142 94.3367 938.851 94.7539 939.125 95.4171C939.263 95.7422 939.331 96.12 939.331 96.633V99.8773C939.331 100.459 939.467 100.567 940.3 100.607V100.878C939.576 100.81 939.303 100.797 938.811 100.797C938.305 100.797 938.033 100.81 937.322 100.878V100.607C938.059 100.581 938.237 100.445 938.237 99.9049V96.5928C938.237 95.4171 937.882 94.9432 937.009 94.9432C936.079 94.9432 935.588 95.5253 935.588 96.633V99.9049C935.588 100.445 935.766 100.581 936.477 100.607V100.878C935.766 100.81 935.494 100.797 935.001 100.797C934.523 100.797 934.236 100.81 933.526 100.878V100.607C934.358 100.567 934.495 100.459 934.495 99.8773V95.4988C934.482 94.9432 934.4 94.8632 933.717 94.8632C933.675 94.8632 933.608 94.8489 933.539 94.8489ZM940.83 100.839L944.531 94.8095H942.851C941.964 94.8095 941.744 94.998 941.253 96.215H940.981L941.296 94.4578H945.994L942.278 100.487H943.876C944.805 100.487 945.187 100.122 945.597 98.8915H945.884L945.529 100.839H940.83Z" fill="white"/>
<path d="M921.708 79.2006C923.528 76.2059 924.487 72.7765 924.482 69.2821C924.482 58.6328 915.759 50 904.999 50C894.24 50 885.517 58.6331 885.517 69.2821C885.512 72.7766 886.472 76.2061 888.292 79.2006L888.221 79.2568L888.305 79.2243C891.715 84.8205 897.915 88.5642 904.999 88.5642C912.084 88.5642 918.283 84.8205 921.693 79.2243L921.778 79.2568L921.708 79.2006ZM922.088 69.2821C922.092 72.235 921.31 75.1367 919.82 77.6956L907.768 68.0882L905.297 52.3773C914.596 52.5344 922.088 60.04 922.088 69.2821ZM887.913 69.2821C887.913 60.0403 895.404 52.5348 904.704 52.3773L902.232 68.0882L890.18 77.6956C888.691 75.1366 887.909 72.2349 887.913 69.2821ZM905 86.1942C898.937 86.1942 893.615 83.0654 890.582 78.3531L905 72.8323L919.419 78.3534C916.385 83.0654 911.064 86.1942 905 86.1942Z" fill="white"/>
</g>
<g clip-path="url(#clip2_18_25)">
<path d="M1050.37 82.6938H1052.54V68.9181H1050.26V82.6938H1050.37ZM1054.9 82.6938H1057.07V68.9181H1054.79V82.6938H1054.9ZM1091.14 86.8876C1092.54 87.1254 1093.8 86.548 1094.63 85.7575C1095.8 84.6403 1096.55 83.184 1097.8 79.7806L1100.18 73.3509L1100.23 73.213H1097.94L1097.92 73.2751L1095.77 79.6541L1093.48 73.2751L1093.45 73.213H1090.95L1091 73.3509L1094.57 82.3794C1094.29 83.1837 1093.83 83.8605 1093.38 84.3134C1092.8 84.8657 1092.01 85.1162 1091.14 84.9668V86.8876Z" fill="white"/>
<path d="M1086.28 72.9743C1083.47 72.9743 1081.54 75.0213 1081.54 77.9469C1081.54 80.9228 1083.45 82.9323 1086.28 82.9323C1089.12 82.9323 1091.01 80.9228 1091.01 77.9469C1091.01 75.0213 1089.08 72.9743 1086.28 72.9743ZM1086.27 81.087C1084.85 81.087 1083.8 79.8422 1083.8 77.9345C1083.8 76.0259 1084.85 74.7832 1086.27 74.7832C1087.72 74.7832 1088.76 76.0259 1088.76 77.9345C1088.76 79.8422 1087.7 81.087 1086.27 81.087ZM1044.04 72.9489C1041.15 72.9489 1039.3 74.9586 1039.3 77.9221C1039.3 80.898 1041.15 82.908 1044.04 82.908C1046.93 82.908 1048.77 80.898 1048.77 77.9221C1048.77 74.9586 1046.93 72.9489 1044.04 72.9489ZM1044.03 81.0612C1042.61 81.0612 1041.55 79.8055 1041.55 77.9096C1041.55 76.0005 1042.61 74.7575 1044.03 74.7575C1045.47 74.7575 1046.52 76.0005 1046.52 77.9096C1046.52 79.8055 1045.46 81.0612 1044.03 81.0612ZM1065.86 75.4858H1070.33V77.2189H1065.86V75.4858ZM1037.75 78.7382C1038.23 80.2445 1038.48 81.752 1038.65 82.6563L1036.23 82.6687C1036.09 81.8904 1035.95 80.8098 1035.53 79.5038C1035.04 77.9463 1034.43 77.2308 1032.99 77.2308H1031.88V82.6557H1029.59V69.4583C1030.08 69.4583 1030.65 69.4204 1031.26 69.4204H1033.1C1034.95 69.4204 1036.17 69.8094 1037.02 70.551C1037.73 71.1654 1038.12 72.0952 1038.12 73.1627C1038.12 74.9083 1037.11 75.9126 1035.99 76.3528C1036.81 76.7412 1037.33 77.4195 1037.75 78.7382ZM1033.34 71.3169H1032.58C1032.26 71.3169 1032.04 71.3423 1031.88 71.3423V75.4855H1033.21C1034.78 75.4855 1035.85 74.669 1035.85 73.3757C1035.85 72.0324 1034.98 71.3299 1033.34 71.3169ZM1080.11 78.7382C1080.58 80.2445 1080.83 81.752 1081.01 82.6563L1078.58 82.6687C1078.44 81.8904 1078.31 80.8098 1077.88 79.5038C1077.4 77.9463 1076.79 77.2308 1075.35 77.2308H1074.24V82.6557H1071.95V69.4583C1072.43 69.4583 1073.01 69.4204 1073.62 69.4204H1075.46C1077.31 69.4204 1078.53 69.8094 1079.38 70.551C1080.09 71.1654 1080.47 72.0952 1080.47 73.1627C1080.47 74.9083 1079.47 75.9126 1078.35 76.3528C1079.17 76.7412 1079.69 77.4195 1080.11 78.7382ZM1075.69 71.3169H1074.94C1074.61 71.3169 1074.4 71.3423 1074.24 71.3423V75.4855H1075.57C1077.14 75.4855 1078.21 74.669 1078.21 73.3757C1078.21 72.0324 1077.34 71.3299 1075.69 71.3169ZM1059.11 80.5341C1059.63 80.861 1060.59 81.1745 1061.42 81.1745C1062.54 81.1745 1062.99 80.8101 1062.99 80.1191C1062.99 79.4162 1062.63 79.1154 1061.44 78.6758C1059.68 78.0475 1058.91 77.0051 1058.91 75.8999C1058.91 74.306 1060.22 72.9867 1062.32 72.9867C1063.31 72.9867 1064.19 73.2876 1064.72 73.6017L1064.27 75.134C1063.76 74.8959 1063.17 74.682 1062.32 74.6945C1061.45 74.7072 1061.1 75.1089 1061.1 75.6736C1061.1 76.3273 1061.76 76.7039 1062.61 76.9926C1064.29 77.5573 1065.18 78.5119 1065.18 79.9437C1065.17 81.6384 1063.76 82.8817 1061.4 82.8817C1060.33 82.8817 1059.31 82.656 1058.66 82.1664L1059.11 80.5341ZM1107.55 82.3424C1107.08 82.5693 1106.09 82.8571 1104.9 82.8571C1102.18 82.832 1100.15 80.9485 1100.15 78.0342C1100.15 75.1968 1101.98 72.9994 1105.26 72.9994C1106.19 72.9994 1107.07 73.2503 1107.57 73.489L1107.18 75.1589C1106.78 74.9583 1106.19 74.8323 1105.31 74.8323C1103.38 74.8323 1102.47 76.1138 1102.49 77.9345C1102.49 79.9688 1103.59 81.0985 1105.3 81.0985C1106.17 81.0985 1106.78 80.898 1107.24 80.6974L1107.55 82.3424ZM1110.25 78.4749C1110.31 80.4197 1111.47 81.1118 1113.06 81.1118C1114.2 81.1118 1114.97 80.9228 1115.64 80.6598L1115.97 82.243C1114.96 82.6849 1113.87 82.9113 1112.76 82.9083C1109.8 82.9083 1108.04 80.9367 1108.04 78.0735C1108.04 75.3855 1109.64 73.013 1112.54 73.013C1115.58 73.013 1116.5 75.5996 1116.5 77.5204C1116.5 77.9354 1116.5 78.2489 1116.45 78.4625L1110.25 78.4749ZM1114.37 76.8545C1114.38 75.9126 1114.11 74.6442 1112.4 74.6442C1110.84 74.6442 1110.38 75.812 1110.26 76.8545H1114.37Z" fill="white"/>
<path d="M1006.76 65.2518C1006.76 64.8589 1006.91 64.4823 1007.19 64.2045C1007.46 63.9266 1007.84 63.7701 1008.23 63.7692H1019.54C1020.36 63.7692 1021.02 64.4356 1021.02 65.2518V86.7494C1021.02 87.567 1020.36 88.2314 1019.54 88.2314H1008.23C1007.84 88.2308 1007.46 88.0745 1007.19 87.7967C1006.91 87.5189 1006.76 87.1423 1006.76 86.7494L1006.76 65.2518Z" fill="black"/>
<path d="M1007.37 67.7875V65.2517C1007.37 65.022 1007.46 64.8019 1007.62 64.6395C1007.78 64.477 1008 64.3855 1008.23 64.385H1019.54C1020.02 64.385 1020.41 64.7743 1020.41 65.2517V67.7875H1007.37ZM1007.37 68.4033H1020.41V83.5981H1007.37V68.4033Z" fill="white"/>
<path d="M1006.76 65.2517C1006.76 64.8588 1006.91 64.4823 1007.19 64.2044C1007.46 63.9265 1007.84 63.77 1008.23 63.7691H1019.54C1020.36 63.7691 1021.02 64.4356 1021.02 65.2517V86.7494C1021.02 87.5669 1020.36 88.2314 1019.54 88.2314H1008.23C1007.84 88.2308 1007.46 88.0744 1007.19 87.7966C1006.91 87.5188 1006.76 87.1422 1006.76 86.7494L1006.76 65.2517ZM1021.77 65.2517C1021.77 64.9565 1021.71 64.664 1021.6 64.3912C1021.49 64.1183 1021.32 63.8704 1021.11 63.6616C1020.91 63.4527 1020.66 63.2871 1020.39 63.1742C1020.12 63.0613 1019.83 63.0033 1019.54 63.0035H1008.23C1007.93 63.0033 1007.65 63.0612 1007.37 63.1741C1007.1 63.287 1006.86 63.4526 1006.65 63.6614C1006.44 63.8703 1006.28 64.1182 1006.17 64.3911C1006.06 64.664 1006 64.9564 1006 65.2517V86.7494C1006 87.0446 1006.06 87.337 1006.17 87.6098C1006.28 87.8826 1006.44 88.1305 1006.65 88.3392C1006.86 88.5479 1007.1 88.7134 1007.37 88.8262C1007.65 88.939 1007.93 88.9968 1008.23 88.9964H1019.54C1020.77 88.9964 1021.77 87.9924 1021.77 86.7494V65.2517Z" fill="white"/>
<path d="M1007.37 84.2128V86.7491C1007.37 86.9788 1007.46 87.199 1007.62 87.3616C1007.78 87.5241 1008 87.6157 1008.23 87.6164H1019.54C1020.02 87.6164 1020.41 87.2265 1020.41 86.7491V84.2128H1007.37Z" fill="white"/>
<path d="M1012.96 81.1745V77.7963C1013.27 77.7858 1013.59 77.7691 1013.9 77.7464C1013.79 77.4825 1013.68 77.2186 1013.54 76.9672C1013.35 76.9926 1013.15 76.9926 1012.96 77.0048V76.3019C1012.5 76.4052 1012.03 76.4806 1011.56 76.5276V81.1742C1011.56 82.204 1011.09 82.4808 1010.8 82.6684H1013.71C1013.44 82.4805 1012.96 82.2043 1012.96 81.1745ZM1019.73 82.6563C1019.49 82.43 1019.19 82.0788 1019.04 81.3872C1018.77 80.1188 1018.19 78.2989 1016.99 76.942C1018.17 76.2889 1018.89 75.2598 1018.89 73.9919C1018.9 73.087 1018.44 72.1324 1017.62 71.5677C1017.27 71.3426 1016.86 71.1787 1016.38 71.0773C1016.55 71.455 1016.66 71.8564 1016.69 72.2584C1017.2 72.6599 1017.47 73.2752 1017.47 74.0162C1017.47 74.9586 1017 76.0632 1015.34 76.6285C1015.48 76.8918 1015.62 77.1683 1015.73 77.4319C1015.82 77.4071 1015.91 77.381 1015.99 77.3568C1016.76 78.2611 1017.39 79.6798 1017.57 80.9982C1017.71 81.9528 1017.37 82.4297 1017.15 82.656L1019.73 82.6563Z" fill="black"/>
<path d="M1016.83 81.1363C1016.58 80.9103 1016.28 80.5589 1016.14 79.8681C1015.87 78.5997 1015.32 76.8165 1014.23 75.549C1014.27 75.5235 1014.31 75.5114 1014.36 75.4857C1015.61 74.8461 1016.37 73.7779 1016.37 72.4722C1016.38 71.5552 1015.92 70.6139 1015.1 70.0486C1014.45 69.6093 1013.58 69.4327 1012.47 69.4327H1008.28C1008.56 69.6215 1009.04 69.898 1009.04 70.9275V79.6424C1009.04 80.6854 1008.56 80.9487 1008.28 81.1366H1011.19C1010.91 80.9487 1010.43 80.6854 1010.43 79.6424V76.2645C1011.45 76.2645 1012.41 76.1382 1013.22 75.9247C1013.95 76.8165 1014.5 78.1986 1014.67 79.4661C1014.8 80.4196 1014.47 80.9106 1014.25 81.136L1016.83 81.1363ZM1010.43 75.4857V70.2116H1012.41C1013.13 70.2246 1013.67 70.3749 1014.09 70.6766C1014.65 71.0775 1014.95 71.7182 1014.95 72.4846C1014.95 73.7776 1014.06 75.4235 1010.43 75.4857Z" fill="black"/>
<path d="M1012.96 74.732V71.7561H1014.52C1014.42 71.4373 1014.21 71.1606 1013.94 70.9648H1010.8C1011.09 71.153 1011.56 71.4171 1011.56 72.4593V75.0843C1012.09 75.0086 1012.56 74.8959 1012.96 74.732ZM1015.81 85.9211C1015.81 86.3483 1016.05 86.6737 1016.49 86.6737C1016.8 86.6737 1017.09 86.5853 1017.21 86.4353L1017.14 86.9263C1017.02 86.9749 1016.83 87.0393 1016.5 87.0393C1015.81 87.0393 1015.32 86.624 1015.32 85.9211C1015.32 85.5446 1015.47 85.2556 1015.69 85.0671C1015.89 84.8923 1016.17 84.79 1016.5 84.79C1016.83 84.79 1017.02 84.8533 1017.14 84.9154V85.381C1017 85.2304 1016.8 85.1547 1016.49 85.1547C1016.05 85.1547 1015.81 85.4816 1015.81 85.9211ZM1010.17 86.4489C1010.07 86.2474 1009.98 86.0841 1009.83 86.0217C1010.16 85.9587 1010.32 85.7573 1010.33 85.4813C1010.33 85.1923 1010.21 84.9787 1009.98 84.892C1009.84 84.8406 1009.66 84.8405 1009.39 84.8405H1008.3C1008.4 84.9038 1008.46 85.1166 1008.46 85.318V86.5231C1008.46 86.6991 1008.4 86.926 1008.3 86.9997H1009.07C1008.97 86.9257 1008.91 86.6989 1008.91 86.5231V86.1341H1009.23C1009.41 86.1341 1009.51 86.2093 1009.58 86.3336C1009.7 86.5228 1009.78 86.787 1009.92 86.9867L1010.55 86.9994C1010.36 86.85 1010.27 86.661 1010.17 86.4489ZM1009.86 85.4931C1009.86 85.707 1009.68 85.7954 1009.41 85.7954H1008.91V85.1926H1009.41C1009.68 85.1926 1009.86 85.2683 1009.86 85.4931ZM1011.38 86.4861C1011.25 86.3731 1011.19 86.1853 1011.19 85.9211C1011.19 85.6576 1011.25 85.4697 1011.38 85.3437C1011.49 85.2307 1011.64 85.168 1011.84 85.168C1012.02 85.168 1012.17 85.231 1012.28 85.3437C1012.41 85.4703 1012.47 85.6576 1012.47 85.9211C1012.47 86.1859 1012.41 86.3731 1012.28 86.4861C1012.23 86.5464 1012.16 86.5941 1012.08 86.6263C1012 86.6585 1011.92 86.6747 1011.84 86.6737C1011.64 86.6737 1011.49 86.5994 1011.38 86.4861ZM1011.82 87.0512C1012.12 87.0512 1012.37 86.9633 1012.56 86.7994C1012.78 86.6119 1012.94 86.3237 1012.94 85.9211C1012.94 85.5194 1012.78 85.2307 1012.56 85.0287C1012.37 84.8784 1012.12 84.7906 1011.82 84.7906C1011.54 84.7906 1011.29 84.879 1011.1 85.0287C1010.88 85.2307 1010.72 85.5194 1010.72 85.9211C1010.72 86.3237 1010.88 86.6119 1011.1 86.7994C1011.29 86.963 1011.54 87.0512 1011.82 87.0512ZM1014.61 84.8405C1014.66 84.8784 1014.69 84.9154 1014.67 84.9671C1014.67 85.0168 1014.65 85.092 1014.6 85.1674L1014.18 85.7827L1013.75 85.1547C1013.7 85.0787 1013.65 85.0041 1013.67 84.9411C1013.68 84.9041 1013.69 84.866 1013.74 84.8405H1012.88C1013.03 84.9038 1013.1 85.0166 1013.22 85.1798L1013.91 86.1729V86.524C1013.91 86.6997 1013.85 86.9266 1013.75 86.9876H1014.52C1014.42 86.9263 1014.36 86.6997 1014.36 86.524V86.1729L1015 85.2686C1015.1 85.1429 1015.23 84.9154 1015.38 84.8408L1014.61 84.8405ZM1018.74 86.6486H1018.19V86.059H1019.02L1019.07 85.7324H1018.19V85.1926H1018.68C1018.95 85.1926 1019.18 85.2053 1019.29 85.3183V84.8405H1017.58C1017.68 84.9154 1017.75 85.1428 1017.75 85.318V86.5231C1017.75 86.7116 1017.68 86.926 1017.58 86.9997H1019.3L1019.38 86.4723C1019.25 86.6367 1019.02 86.6486 1018.74 86.6486ZM1017.66 66.5451C1017.71 66.6202 1017.82 66.7084 1017.9 66.7459C1018.08 66.847 1018.28 66.8988 1018.49 66.8962C1018.8 66.8962 1018.99 66.7587 1018.99 66.5572C1018.99 66.3188 1018.75 66.2812 1018.39 66.2304C1017.93 66.1682 1017.68 65.9546 1017.68 65.5784C1017.7 65.2012 1018.05 64.9128 1018.56 64.9128C1018.9 64.9128 1019.14 64.9876 1019.29 65.0631V65.5526C1019.24 65.4645 1019.13 65.4018 1019.02 65.3518C1018.87 65.3014 1018.71 65.2761 1018.56 65.2766C1018.31 65.2766 1018.16 65.3772 1018.16 65.5021C1018.16 65.7159 1018.36 65.7411 1018.79 65.8286C1019.23 65.9177 1019.49 66.1055 1019.48 66.4948C1019.46 66.9465 1019.11 67.2482 1018.49 67.2482C1018.22 67.2482 1017.87 67.1977 1017.66 67.0849V66.5451ZM1010.26 66.6448C1010.14 66.4315 1010.06 66.2685 1009.9 66.1931C1010.24 66.1176 1010.42 65.9174 1010.42 65.6156C1010.42 65.3264 1010.29 65.1006 1010.06 65.0128C1009.91 64.9501 1009.72 64.9501 1009.43 64.9501H1008.29C1008.4 65.0252 1008.46 65.2515 1008.46 65.4524V66.7199C1008.46 66.9089 1008.4 67.1477 1008.29 67.2104H1009.11C1009 67.1477 1008.94 66.9089 1008.94 66.7199V66.3182H1009.29C1009.46 66.3182 1009.56 66.3809 1009.63 66.5197C1009.76 66.7196 1009.84 66.9965 1009.99 67.2104H1010.65C1010.45 67.0725 1010.36 66.8587 1010.26 66.6448ZM1009.93 65.6405C1009.93 65.8671 1009.75 65.9546 1009.46 65.9546H1008.94V65.3139H1009.46C1009.75 65.3139 1009.93 65.4018 1009.93 65.6405ZM1011.52 66.6829C1011.39 66.5569 1011.33 66.3567 1011.33 66.0807C1011.33 65.8168 1011.39 65.6159 1011.52 65.4772C1011.64 65.3645 1011.8 65.2891 1012 65.2891C1012.2 65.2891 1012.36 65.3645 1012.47 65.4772C1012.61 65.6156 1012.68 65.8168 1012.68 66.0807C1012.68 66.3567 1012.61 66.5569 1012.47 66.6829C1012.36 66.7957 1012.2 66.8711 1012 66.8711C1011.8 66.8711 1011.64 66.7957 1011.52 66.6829ZM1012 67.2731C1012.31 67.2731 1012.57 67.1849 1012.77 67.0095C1013.01 66.8081 1013.17 66.5072 1013.17 66.0807C1013.17 65.6659 1013.01 65.3521 1012.77 65.1518C1012.57 64.9879 1012.31 64.8998 1012 64.8998C1011.69 64.8998 1011.42 64.9879 1011.23 65.1518C1010.99 65.3521 1010.83 65.6659 1010.83 66.0807C1010.83 66.5075 1010.99 66.8084 1011.23 67.0095C1011.43 67.1849 1011.7 67.2731 1012 67.2731ZM1015.23 66.6332C1015.11 66.7957 1014.85 66.8465 1014.56 66.8465H1014.13V65.4526C1014.13 65.2645 1014.19 65.0252 1014.29 64.9504H1013.48C1013.59 65.0255 1013.65 65.2642 1013.65 65.4526V66.7202C1013.65 66.9217 1013.59 67.1349 1013.48 67.2107H1015.16L1015.23 66.6332ZM1017.26 66.6332C1017.14 66.7957 1016.88 66.8587 1016.59 66.8465H1016.14V65.4526C1016.14 65.2645 1016.2 65.0252 1016.32 64.9504H1015.51C1015.62 65.0255 1015.68 65.2642 1015.68 65.4526V66.7202C1015.68 66.9217 1015.62 67.148 1015.51 67.2225H1017.17L1017.26 66.6332Z" fill="black"/>
<path d="M1117.34 72.9246C1117.34 72.2269 1117.86 71.7012 1118.52 71.7012C1119.19 71.7012 1119.71 72.2272 1119.71 72.9246C1119.71 73.6335 1119.19 74.1557 1118.52 74.1557C1117.86 74.1557 1117.34 73.6335 1117.34 72.9246ZM1118.53 74.4014C1119.32 74.4014 1120 73.7777 1120 72.9246C1120 72.079 1119.32 71.4556 1118.53 71.4556C1117.72 71.4556 1117.04 72.079 1117.04 72.9246C1117.04 73.7774 1117.72 74.4014 1118.53 74.4014ZM1118.22 73.0413H1118.51L1118.95 73.7777H1119.24L1118.76 73.0298C1119.01 72.9989 1119.2 72.8662 1119.2 72.5622C1119.2 72.2269 1119 72.079 1118.6 72.079H1117.96V73.7774H1118.22V73.0413ZM1118.22 72.8231V72.2971H1118.56C1118.74 72.2971 1118.93 72.3359 1118.93 72.5466C1118.93 72.8075 1118.74 72.8231 1118.52 72.8231H1118.22Z" fill="white"/>
</g>
<path d="M1190 74.2732H1186.74V69.2801H1180V82.3305H1186.74V77.2797H1190V82.3305H1196.74V69.2801H1190V74.2732ZM1207.72 78.0004C1207.72 78.9027 1207.23 79.9249 1206.03 79.9249C1204.84 79.9249 1204.35 78.9027 1204.35 78.0004V69.2801H1197.61V78.1201C1197.61 79.4437 1198.64 82.3305 1202.5 82.3305H1209.57C1213.43 82.3305 1214.46 79.4437 1214.46 78.1201V69.2801H1207.72V78.0004ZM1225.71 74.5726L1223.05 69.2801H1215.33V82.3305H1221.53V76.7387L1224.3 82.3305H1227.12L1229.9 76.7387V82.3305H1236.09V69.2801H1228.37L1225.71 74.5726ZM1247.34 74.5726L1244.68 69.2801H1236.96V82.3305H1243.16V76.7387L1245.93 82.3305H1248.76L1251.53 76.7387V82.3305H1257.73V69.2801H1250.01L1247.34 74.5726ZM1258.59 82.3305H1271.75V78.7231H1265.55V77.2797H1271.75V74.2732H1265.55V72.8897H1271.75V69.2801H1258.59V82.3305ZM1289.57 73.6103C1289.57 71.9873 1288.65 69.2801 1286.04 69.2801H1272.62V82.3305H1279.36V78.5435L1282.24 82.3305H1290.55L1287.02 77.6988C1288.43 77.7609 1289.57 75.2355 1289.57 73.6103ZM1281.21 75.2953H1279.36V72.3487H1281.42C1283.11 72.3487 1282.94 75.2953 1281.21 75.2953ZM1290.67 69C1290.32 69 1289.99 69.1533 1289.74 69.4262C1289.5 69.6991 1289.36 70.0692 1289.36 70.4552C1289.36 70.8411 1289.5 71.2112 1289.74 71.4841C1289.99 71.757 1290.32 71.9103 1290.67 71.9103C1291.02 71.9103 1291.36 71.757 1291.6 71.4841C1291.85 71.2112 1291.99 70.8411 1291.99 70.4552C1291.99 70.0692 1291.85 69.6991 1291.6 69.4262C1291.36 69.1533 1291.02 69 1290.67 69ZM1290.67 71.6687C1290.53 71.6702 1290.39 71.6396 1290.25 71.5786C1290.12 71.5176 1290 71.4275 1289.9 71.3138C1289.8 71.2001 1289.72 71.0651 1289.67 70.917C1289.62 70.7689 1289.59 70.6107 1289.6 70.4519C1289.6 70.2939 1289.62 70.1366 1289.67 69.9895C1289.73 69.8424 1289.8 69.7084 1289.9 69.5956C1290 69.4829 1290.12 69.3936 1290.26 69.3331C1290.39 69.2727 1290.53 69.2423 1290.67 69.2438C1290.81 69.2434 1290.96 69.2747 1291.09 69.3356C1291.22 69.3966 1291.34 69.4861 1291.44 69.5987C1291.53 69.7114 1291.61 69.845 1291.66 69.9915C1291.72 70.1381 1291.74 70.2946 1291.74 70.4519C1291.74 70.6099 1291.72 70.7672 1291.67 70.9147C1291.61 71.0621 1291.54 71.1966 1291.44 71.3101C1291.34 71.4236 1291.22 71.5138 1291.09 71.5754C1290.96 71.6371 1290.82 71.6688 1290.67 71.6687Z" fill="white"/>
<path d="M769.765 77.4577C770.959 74.3285 772.091 71.2703 772.091 71.1992C772.154 71.0569 772.28 70.9147 772.468 70.9147H773.348C773.537 70.9147 773.663 71.0569 773.726 71.1992C774.04 72.0526 774.983 74.7552 775.989 77.4577H769.765ZM777.624 69.7768C776.492 66.7898 776.932 67.1454 774.354 67.0031H771.337C768.947 67.0742 769.325 66.8609 768.507 68.7811C768.507 68.7811 764.421 79.378 762.66 83.7163L762.598 83.9296C762.283 84.6408 762.535 84.7119 763.038 84.7119H766.747C766.998 84.7119 767.124 84.5697 767.187 84.4275C767.187 84.4275 767.69 83.0762 768.382 81.2271H777.372C777.749 82.2939 778.189 83.3607 778.567 84.4275C778.629 84.6408 778.818 84.7831 779.007 84.7831H782.842C783.408 84.7831 783.533 84.8542 783.345 84.2852C782.653 82.4361 778.252 71.4837 777.624 69.7768ZM719.971 67.0031H716.199C715.885 67.0031 715.822 67.1454 715.822 67.4298V84.143C715.822 84.5697 715.885 84.7119 716.325 84.7119H719.909C720.286 84.7119 720.411 84.6408 720.411 84.143V67.501C720.349 67.1454 720.286 67.0031 719.971 67.0031ZM711.547 67.0031H708.466C708.089 67.0031 707.963 67.1454 707.963 67.5721V80.8004C707.963 80.8004 701.802 69.919 700.985 68.4966C700.041 66.932 699.727 67.0031 697.024 67.0031H693.503C693.063 67.0031 693 67.1454 693 67.5721V84.2141C693 84.6408 693.126 84.7831 693.503 84.7831H696.584C697.024 84.7831 697.087 84.7119 697.087 84.2141V71.1281C697.087 71.1281 702.179 80.1603 703.877 83.2184C704.757 84.7831 704.883 84.7831 707.397 84.7831H711.547C711.924 84.7831 712.05 84.7119 712.05 84.2141V67.5721C712.05 67.1454 711.924 67.0031 711.547 67.0031ZM803.463 67.0031H800.383C800.005 67.0031 799.88 67.1454 799.88 67.5721V80.8004C799.88 80.8004 793.718 69.919 792.901 68.4966C791.958 66.8609 791.644 67.0031 788.94 67.0031H785.419C784.979 67.0031 784.917 67.1454 784.917 67.5721V84.2141C784.917 84.6408 784.979 84.7831 785.419 84.7831H788.5C788.94 84.7831 789.003 84.7119 789.003 84.2141V71.1281C789.003 71.1281 794.096 80.1603 795.793 83.2184C796.673 84.7831 796.799 84.7831 799.314 84.7831H803.463C803.841 84.7831 803.966 84.7119 803.966 84.2141V67.5721C803.966 67.1454 803.903 67.0031 803.463 67.0031ZM736.066 73.8306C734.557 73.6884 730.534 73.2617 729.213 73.1194C728.71 73.0483 728.585 72.7638 728.522 72.4082V71.9815V71.6259C728.585 71.1281 728.773 70.9147 729.276 70.9147H740.279C740.656 70.9147 740.782 70.8436 740.782 70.3457V67.501C740.782 67.0742 740.656 67.0031 740.279 67.0031H729.15C726.258 67.0031 724.624 68.2122 724.184 70.7013C724.058 71.2703 724.058 71.9104 724.058 72.4082C724.058 72.9772 724.121 73.6173 724.121 74.044C724.309 75.4664 725.064 77.1021 728.396 77.5288C731.037 77.8133 734.872 78.1689 736.129 78.3112C736.695 78.3823 736.821 78.8801 736.821 79.1646V80.3025C736.821 80.7292 736.632 80.8715 736.192 80.8715H724.624C724.247 80.8715 724.121 80.9426 724.121 81.4404V84.2852C724.121 84.7119 724.247 84.8542 724.624 84.8542H736.129C738.958 84.8542 740.844 84.2852 741.347 81.5115C741.473 80.9426 741.473 80.1603 741.473 79.5913C741.473 78.7379 741.41 78.0267 741.347 77.7422C740.844 74.6841 738.895 74.1151 736.066 73.8306ZM756.248 73.8306C754.739 73.6884 750.715 73.2617 749.395 73.1194C748.892 73.0483 748.766 72.7638 748.703 72.4082V71.9815V71.6259C748.766 71.1281 748.955 70.9147 749.458 70.9147H760.46C760.837 70.9147 760.963 70.8436 760.963 70.3457V67.501C760.963 67.0742 760.837 67.0031 760.46 67.0031H749.332C746.44 67.0031 744.805 68.2122 744.365 70.7013C744.239 71.2703 744.239 71.9104 744.239 72.4082C744.239 72.9772 744.302 73.6173 744.302 74.044C744.491 75.4664 745.245 77.1021 748.577 77.5288C751.218 77.8133 755.053 78.1689 756.31 78.3112C756.876 78.3823 757.002 78.8801 757.002 79.1646V80.3025C757.002 80.7292 756.813 80.8715 756.373 80.8715H744.805C744.365 80.8715 744.302 80.9426 744.302 81.4404V84.2852C744.302 84.7119 744.428 84.8542 744.805 84.8542H756.31C759.14 84.8542 761.026 84.2852 761.529 81.5115C761.654 80.9426 761.654 80.1603 761.654 79.5913C761.654 78.7379 761.592 78.0267 761.529 77.7422C760.963 74.6841 759.014 74.1151 756.248 73.8306Z" fill="white"/>
<path d="M377.027 76.9628C376.964 80.924 377.72 83.022 380.605 83.022C383.485 83.022 383.898 79.448 383.898 76.7283C383.898 74.0068 383.352 71.3648 380.326 71.3648C378.469 71.3648 377.098 72.9975 377.027 76.9628ZM371.19 93.5158V66.7025H377.098V67.7901C377.098 69.2409 377.615 68.6426 378.032 68.0773C378.102 67.9828 379.418 66.1586 382.384 66.1586C385.34 66.1586 389.94 68.4895 389.94 76.7283C389.94 83.1011 387.196 87.7634 382.457 87.7634C379.846 87.7634 378.336 86.5998 377.991 86.1302C377.645 85.667 377.165 85.5862 377.165 86.1302V93.5157L371.19 93.5158ZM325.526 58H331.913V76.9628C331.913 80.2246 330.675 87.0658 321.819 87.0658C312.961 87.0658 312 80.6895 312 77.1171V73.6203H318.18V77.0382C318.18 79.1363 319.417 81.0783 321.75 81.0783C324.084 81.0783 325.526 79.6024 325.526 77.1171V58ZM345.269 74.0864C345.269 72.1413 344.309 70.2765 342.112 70.2765C339.983 70.2765 339.227 71.9846 339.227 74.0864H345.269ZM341.496 65.9253C346.511 65.9253 350.904 68.1006 350.904 78.1264H339.026C339.026 81.3129 340.192 82.6344 342.252 82.6344C344.312 82.6344 344.999 80.7678 344.999 80.7678H350.837C350.837 83.6443 347.334 87.5301 342.046 87.4529C336.005 87.4529 333.052 82.4011 333.052 77.1938C333.052 71.9846 335.659 65.9253 341.496 65.9253ZM364.257 74.0864C364.257 72.1413 363.297 70.2765 361.1 70.2765C358.972 70.2765 358.214 71.9846 358.214 74.0864H364.257ZM360.485 65.9253C365.5 65.9253 369.891 68.1006 369.891 78.1264H358.014C358.014 81.3129 359.181 82.6344 361.242 82.6344C363.301 82.6344 363.988 80.7678 363.988 80.7678H369.826C369.826 83.6443 366.323 87.5301 361.036 87.4529C354.992 87.4529 352.039 82.4011 352.039 77.1938C352.039 71.9846 354.65 65.9253 360.485 65.9253ZM386.029 90.3013C386.029 89.2394 386.793 88.3767 387.734 88.3767C388.673 88.3767 389.435 89.2394 389.435 90.3013C389.435 91.3614 388.673 92.2295 387.734 92.2295C386.793 92.2295 386.029 91.3614 386.029 90.3013ZM385.832 90.3013C385.832 91.4895 386.682 92.4539 387.734 92.4539C388.779 92.4539 389.634 91.4895 389.634 90.3013C389.634 89.1131 388.779 88.1487 387.734 88.1487C386.682 88.1487 385.832 89.1131 385.832 90.3013Z" fill="white"/>
<path d="M625.568 106.831V111.222H626.854V108.299H631.534V111.222H632.819V106.839L625.568 106.831ZM626.71 105.411H631.655C632.342 105.261 632.853 104.598 632.997 103.956H625.369C625.512 104.598 626.03 105.261 626.71 105.411ZM621.673 111.225C622.322 110.924 622.67 110.404 622.804 109.794H617.036L617.04 103.959L615.747 103.963V111.225H621.673ZM606.133 105.391H610.699C611.388 105.172 611.966 104.598 612.107 103.961H604.853V108.253H610.79V109.759L606.133 109.763C605.403 109.985 604.784 110.522 604.475 111.231L604.853 111.223H612.066V106.826H606.133V105.391ZM594.859 105.405H599.802C600.49 105.255 601.001 104.592 601.145 103.949H593.517C593.66 104.592 594.178 105.255 594.859 105.405ZM594.859 108.275H599.802C600.49 108.127 601.001 107.463 601.145 106.82H593.517C593.66 107.463 594.178 108.127 594.859 108.275ZM594.859 111.224H599.802C600.49 111.075 601.001 110.411 601.145 109.769H593.517C593.66 110.411 594.178 111.075 594.859 111.224ZM582 103.967C582.149 104.601 582.65 105.25 583.339 105.413H585.42L585.526 105.458V111.208H586.825V105.458L586.943 105.413H589.025C589.722 105.216 590.213 104.601 590.359 103.967V103.953H582V103.967Z" fill="white"/>
<path d="M607.501 89.6008L613.993 49.6176C620.181 49.6176 622.133 50.3607 622.415 53.3937C622.415 53.3937 626.566 51.6987 628.66 48.2563C620.489 44.1105 612.28 43.9235 612.28 43.9235L607.49 50.3126L607.501 50.3118L602.711 43.9225C602.711 43.9225 594.501 44.1097 586.332 48.2555C588.424 51.6979 592.577 53.3929 592.577 53.3929C592.86 50.3597 594.81 49.6166 600.956 49.6118L607.501 89.6008Z" fill="white"/>
<path d="M607.498 42.0781C614.103 42.0228 621.662 43.1969 629.401 46.8905C630.435 44.8518 630.701 43.9508 630.701 43.9508C622.242 40.2858 614.319 39.0315 607.497 39C600.676 39.0315 592.754 40.286 584.296 43.9508C584.296 43.9508 584.673 45.0606 585.595 46.8905C593.332 43.1969 600.893 42.0228 607.497 42.0781H607.498Z" fill="white"/>
<defs>
<clipPath id="clip0_18_25">
<rect width="103" height="103" fill="white" transform="translate(149 24)"/>
</clipPath>
<clipPath id="clip1_18_25">
<rect width="82" height="51" fill="white" transform="translate(864 50)"/>
</clipPath>
<clipPath id="clip2_18_25">
<rect width="114" height="26" fill="white" transform="translate(1006 63)"/>
</clipPath>
</defs>
</svg>
