<svg width="19" height="19" viewBox="0 0 19 19" fill="none" xmlns="http://www.w3.org/2000/svg">
<path d="M3.52344 11.0107L9.02759 16.1813L9.0276 16.1813C9.14935 16.2957 9.21022 16.3529 9.2746 16.3854C9.41634 16.457 9.58364 16.457 9.72538 16.3854C9.78976 16.3529 9.85063 16.2957 9.97238 16.1813L9.97239 16.1813L15.4765 11.0107C17.0252 9.55597 17.2132 7.16197 15.9108 5.48322L15.6658 5.16756C14.1077 3.15929 10.9801 3.49609 9.88527 5.79005C9.73061 6.11409 9.26937 6.11409 9.11471 5.79005C8.01987 3.49609 4.89227 3.15929 3.33413 5.16756L3.08922 5.48322C1.78674 7.16197 1.9748 9.55596 3.52344 11.0107Z" fill="#EB5757" stroke="#EB5757" stroke-width="2"/>
</svg>
