<svg width="19" height="19" viewBox="0 0 19 19" fill="none" xmlns="http://www.w3.org/2000/svg">
<path d="M3.52345 11.0106L9.02761 16.1812L9.02762 16.1812C9.14936 16.2956 9.21024 16.3528 9.27461 16.3853C9.41635 16.4568 9.58366 16.4568 9.7254 16.3853C9.78977 16.3528 9.85065 16.2956 9.9724 16.1812L9.9724 16.1812L15.4766 11.0106C17.0252 9.55584 17.2133 7.16185 15.9108 5.4831L15.6659 5.16744C14.1077 3.15917 10.9801 3.49597 9.88528 5.78993C9.73063 6.11397 9.26938 6.11397 9.11473 5.78993C8.01988 3.49597 4.89229 3.15917 3.33415 5.16744L3.08924 5.4831C1.78675 7.16185 1.97481 9.55584 3.52345 11.0106Z" fill="#EB5757" stroke="#EB5757" stroke-width="2"/>
</svg>
