<svg width="163" height="38" viewBox="0 0 163 38" fill="none" xmlns="http://www.w3.org/2000/svg">
<g clip-path="url(#clip0_19_139)">
<path d="M5.22368 4.65674C2.32999 4.65674 0 6.98673 0 9.88042V28.0412C0 30.9349 2.32999 33.2649 5.22368 33.2649H15.0667V22.0809H12.1093V18.0543H15.0667V14.6142C15.0667 11.9114 16.814 9.42984 20.8393 9.42984C22.469 9.42984 23.6742 9.5863 23.6742 9.5863L23.5794 13.3465C23.5794 13.3465 22.3503 13.3349 21.0091 13.3349C19.5576 13.3349 19.3248 14.0037 19.3248 15.114V18.0543H23.6947L23.5043 22.0809H19.3248V33.2649H23.3845C26.2782 33.2649 28.6082 30.935 28.6082 28.0413V9.88044C28.6082 6.98676 26.2782 4.65677 23.3845 4.65677H5.22365L5.22368 4.65674Z" fill="white"/>
</g>
<g clip-path="url(#clip1_19_139)">
<path d="M68.6453 4.07471H45.122C43.3511 4.07471 41.9143 5.47159 41.9143 7.19333V30.0632C41.9143 31.785 43.3511 33.1818 45.122 33.1818H68.6453C70.4163 33.1818 71.8531 31.785 71.8531 30.0632V7.19333C71.8531 5.47159 70.4163 4.07471 68.6453 4.07471ZM65.3775 14.3921C65.3908 14.5741 65.3908 14.7625 65.3908 14.9444C65.3908 20.5774 60.9802 27.068 52.9208 27.068C50.4348 27.068 48.1293 26.3664 46.1913 25.1579C46.5454 25.1969 46.8863 25.2099 47.2471 25.2099C49.2987 25.2099 51.1833 24.5342 52.6869 23.3907C50.7623 23.3517 49.145 22.1237 48.5904 20.4345C49.2653 20.5319 49.8735 20.5319 50.5685 20.3565C48.5636 19.9602 47.06 18.2449 47.06 16.1724V16.1204C47.6414 16.4387 48.3231 16.6337 49.0381 16.6596C48.437 16.2709 47.9441 15.7435 47.6036 15.1245C47.2631 14.5055 47.0856 13.8142 47.0867 13.1122C47.0867 12.3196 47.3006 11.5919 47.6815 10.9617C49.84 13.5475 53.0812 15.2368 56.7166 15.4187C56.0951 12.5275 58.3205 10.182 60.9936 10.182C62.2566 10.182 63.3927 10.6953 64.1946 11.5269C65.1837 11.345 66.1326 10.9877 66.9746 10.5004C66.6472 11.4879 65.9589 12.3196 65.05 12.8458C65.9321 12.7549 66.7875 12.5145 67.5761 12.1831C66.9813 13.0342 66.2329 13.7879 65.3775 14.3921Z" fill="white"/>
</g>
<path d="M100.129 14.0246C97.4102 14.0246 95.1919 16.2429 95.1919 18.9612C95.1919 21.6794 97.4102 23.8977 100.129 23.8977C102.847 23.8977 105.065 21.6794 105.065 18.9612C105.065 16.2429 102.847 14.0246 100.129 14.0246ZM114.935 18.9612C114.935 16.9169 114.953 14.8912 114.838 12.8506C114.723 10.4805 114.183 8.37695 112.45 6.64377C110.713 4.9069 108.613 4.36991 106.243 4.2551C104.199 4.1403 102.173 4.15882 100.132 4.15882C98.088 4.15882 96.0622 4.1403 94.0217 4.2551C91.6515 4.36991 89.548 4.9106 87.8148 6.64377C86.0779 8.38065 85.541 10.4805 85.4262 12.8506C85.3114 14.8949 85.3299 16.9206 85.3299 18.9612C85.3299 21.0017 85.3114 23.0312 85.4262 25.0717C85.541 27.4419 86.0817 29.5454 87.8148 31.2785C89.5517 33.0154 91.6515 33.5524 94.0217 33.6672C96.0659 33.782 98.0917 33.7635 100.132 33.7635C102.176 33.7635 104.202 33.782 106.243 33.6672C108.613 33.5524 110.716 33.0117 112.45 31.2785C114.186 29.5417 114.723 27.4419 114.838 25.0717C114.957 23.0312 114.935 21.0054 114.935 18.9612ZM100.129 26.5568C95.9252 26.5568 92.5329 23.1645 92.5329 18.9612C92.5329 14.7578 95.9252 11.3656 100.129 11.3656C104.332 11.3656 107.724 14.7578 107.724 18.9612C107.724 23.1645 104.332 26.5568 100.129 26.5568ZM108.035 12.8284C107.054 12.8284 106.261 12.0359 106.261 11.0545C106.261 10.0731 107.054 9.28057 108.035 9.28057C109.017 9.28057 109.809 10.0731 109.809 11.0545C109.809 11.2875 109.764 11.5183 109.675 11.7337C109.586 11.949 109.455 12.1447 109.29 12.3095C109.125 12.4743 108.93 12.6049 108.714 12.694C108.499 12.783 108.268 12.8287 108.035 12.8284Z" fill="white"/>
<g clip-path="url(#clip2_19_139)">
<path d="M145.702 5.30908C128.702 5.30908 128.404 6.82092 128.404 18.6285C128.404 30.4361 128.702 31.9479 145.702 31.9479C162.702 31.9479 163 30.4361 163 18.6285C163 6.82092 162.702 5.30908 145.702 5.30908ZM151.246 19.2063L143.479 22.8319C142.799 23.1467 142.242 22.7939 142.242 22.0431V15.2139C142.242 14.4649 142.799 14.1103 143.479 14.4251L151.246 18.0508C151.926 18.369 151.926 18.888 151.246 19.2063Z" fill="white"/>
</g>
<defs>
<clipPath id="clip0_19_139">
<rect width="28.6082" height="28.6082" fill="white" transform="translate(0 4.65674)"/>
</clipPath>
<clipPath id="clip1_19_139">
<rect width="29.9388" height="33.2653" fill="white" transform="translate(41.9143 1.99561)"/>
</clipPath>
<clipPath id="clip2_19_139">
<rect width="34.5959" height="34.5959" fill="white" transform="translate(128.404 1.33057)"/>
</clipPath>
</defs>
</svg>
