<svg width="96" height="23" viewBox="0 0 96 23" fill="none" xmlns="http://www.w3.org/2000/svg">
<g clip-path="url(#clip0_6_166)">
<path d="M3.07652 2.74286C1.37226 2.74286 0 4.11512 0 5.81938V16.5153C0 18.2196 1.37226 19.5919 3.07652 19.5919H8.87363V13.0049H7.13187V10.6335H8.87363V8.60737C8.87363 7.01556 9.90275 5.55401 12.2734 5.55401C13.2333 5.55401 13.9431 5.64616 13.9431 5.64616L13.8872 7.86075C13.8872 7.86075 13.1634 7.85391 12.3735 7.85391C11.5186 7.85391 11.3815 8.24781 11.3815 8.90172V10.6335H13.9552L13.843 13.005H11.3815V19.5919H13.7725C15.4767 19.5919 16.849 18.2196 16.849 16.5154V5.8194C16.849 4.11514 15.4767 2.74288 13.7725 2.74288H3.07651L3.07652 2.74286Z" fill="#151515"/>
</g>
<g clip-path="url(#clip1_6_166)">
<path d="M40.4292 2.39999H26.5749C25.5319 2.39999 24.6857 3.2227 24.6857 4.23673V17.7061C24.6857 18.7201 25.5319 19.5429 26.5749 19.5429H40.4292C41.4722 19.5429 42.3184 18.7201 42.3184 17.7061V4.23673C42.3184 3.2227 41.4722 2.39999 40.4292 2.39999ZM38.5045 8.47653C38.5124 8.58367 38.5124 8.69464 38.5124 8.80178C38.5124 12.1194 35.9147 15.9421 31.1681 15.9421C29.704 15.9421 28.3461 15.5288 27.2047 14.8171C27.4133 14.84 27.614 14.8477 27.8265 14.8477C29.0349 14.8477 30.1448 14.4497 31.0303 13.7763C29.8968 13.7533 28.9443 13.0301 28.6177 12.0352C29.0152 12.0926 29.3733 12.0926 29.7827 11.9893C28.6019 11.7559 27.7163 10.7457 27.7163 9.52499V9.49438C28.0588 9.68188 28.4602 9.79668 28.8814 9.81198C28.5273 9.58302 28.237 9.27239 28.0365 8.90783C27.836 8.54327 27.7314 8.13612 27.7321 7.7227C27.7321 7.25586 27.858 6.82729 28.0824 6.45612C29.3537 7.97908 31.2626 8.97397 33.4037 9.08112C33.0376 7.37831 34.3483 5.99693 35.9226 5.99693C36.6665 5.99693 37.3356 6.29923 37.8079 6.78902C38.3904 6.68188 38.9493 6.47142 39.4452 6.18443C39.2523 6.76607 38.847 7.25586 38.3117 7.56581C38.8312 7.51224 39.335 7.37066 39.7994 7.1755C39.4491 7.67678 39.0083 8.12066 38.5045 8.47653Z" fill="#151515"/>
</g>
<path d="M58.9714 8.25989C57.3705 8.25989 56.064 9.56638 56.064 11.1673C56.064 12.7683 57.3705 14.0748 58.9714 14.0748C60.5724 14.0748 61.8789 12.7683 61.8789 11.1673C61.8789 9.56638 60.5724 8.25989 58.9714 8.25989ZM67.6915 11.1673C67.6915 9.96335 67.7025 8.77027 67.6348 7.56847C67.5672 6.17256 67.2488 4.93368 66.228 3.91291C65.2051 2.88997 63.9684 2.5737 62.5725 2.50609C61.3685 2.43847 60.1754 2.44938 58.9736 2.44938C57.7696 2.44938 56.5765 2.43847 55.3747 2.50609C53.9788 2.5737 52.74 2.89215 51.7192 3.91291C50.6962 4.93586 50.38 6.17256 50.3124 7.56847C50.2447 8.77245 50.2557 9.96553 50.2557 11.1673C50.2557 12.3691 50.2447 13.5644 50.3124 14.7662C50.38 16.1621 50.6984 17.401 51.7192 18.4217C52.7421 19.4447 53.9788 19.761 55.3747 19.8286C56.5787 19.8962 57.7718 19.8853 58.9736 19.8853C60.1776 19.8853 61.3707 19.8962 62.5725 19.8286C63.9684 19.761 65.2072 19.4425 66.228 18.4217C67.251 17.3988 67.5672 16.1621 67.6348 14.7662C67.7046 13.5644 67.6915 12.3713 67.6915 11.1673ZM58.9714 15.6408C56.4958 15.6408 54.4979 13.6429 54.4979 11.1673C54.4979 8.69175 56.4958 6.69384 58.9714 6.69384C61.447 6.69384 63.4449 8.69175 63.4449 11.1673C63.4449 13.6429 61.447 15.6408 58.9714 15.6408ZM63.6281 7.55539C63.0501 7.55539 62.5834 7.08863 62.5834 6.51063C62.5834 5.93263 63.0501 5.46587 63.6281 5.46587C64.2061 5.46587 64.6729 5.93263 64.6729 6.51063C64.673 6.64788 64.6461 6.78381 64.5937 6.91065C64.5413 7.03748 64.4643 7.15272 64.3673 7.24977C64.2702 7.34682 64.155 7.42377 64.0281 7.47621C63.9013 7.52865 63.7654 7.55556 63.6281 7.55539Z" fill="#151515"/>
<g clip-path="url(#clip2_6_166)">
<path d="M85.8123 3.12689C75.7997 3.12689 75.6245 4.0173 75.6245 10.9715C75.6245 17.9256 75.7997 18.816 85.8123 18.816C95.8248 18.816 96 17.9256 96 10.9715C96 4.0173 95.8248 3.12689 85.8123 3.12689ZM89.0774 11.3117L84.5031 13.4471C84.1028 13.6325 83.7747 13.4247 83.7747 12.9825V8.9604C83.7747 8.51927 84.1028 8.31042 84.5031 8.49584L89.0774 10.6312C89.4778 10.8186 89.4778 11.1243 89.0774 11.3117Z" fill="#151515"/>
</g>
<defs>
<clipPath id="clip0_6_166">
<rect width="16.849" height="16.849" fill="white" transform="translate(0 2.74286)"/>
</clipPath>
<clipPath id="clip1_6_166">
<rect width="17.6327" height="19.5918" fill="white" transform="translate(24.6857 1.17551)"/>
</clipPath>
<clipPath id="clip2_6_166">
<rect width="20.3755" height="20.3755" fill="white" transform="translate(75.6245 0.783661)"/>
</clipPath>
</defs>
</svg>
