<svg width="14" height="14" viewBox="0 0 14 14" fill="none" xmlns="http://www.w3.org/2000/svg">
<path d="M6.01259 4.21171C6.38713 3.27798 6.5744 2.81111 6.87866 2.7464C6.95866 2.72939 7.04134 2.72939 7.12134 2.7464C7.4256 2.81111 7.61287 3.27798 7.98741 4.21171C8.20041 4.74271 8.30691 5.0082 8.50618 5.18878C8.56207 5.23944 8.62275 5.28455 8.68735 5.32348C8.91767 5.4623 9.20519 5.48805 9.78023 5.53955C10.7537 5.62673 11.2404 5.67032 11.389 5.94784C11.4198 6.00531 11.4407 6.06754 11.451 6.13194C11.5002 6.44287 11.1424 6.76841 10.4268 7.41948L10.2281 7.60028C9.8935 7.90466 9.72621 8.05686 9.62945 8.24679C9.57141 8.36073 9.53249 8.48343 9.51426 8.60999C9.48386 8.82098 9.53284 9.04176 9.63082 9.48334L9.66582 9.64111C9.84152 10.433 9.92937 10.8289 9.8197 11.0236C9.7212 11.1984 9.53976 11.3103 9.33932 11.3199C9.11619 11.3305 8.80178 11.0743 8.17296 10.5619C7.75867 10.2244 7.55152 10.0556 7.32157 9.98963C7.11142 9.92937 6.88858 9.92937 6.67843 9.98963C6.44848 10.0556 6.24133 10.2244 5.82704 10.5619C5.19822 11.0743 4.88381 11.3305 4.66068 11.3199C4.46024 11.3103 4.2788 11.1984 4.1803 11.0236C4.07063 10.8289 4.15848 10.433 4.33418 9.64111L4.36918 9.48334C4.46716 9.04176 4.51614 8.82098 4.48574 8.60999C4.46751 8.48343 4.42859 8.36073 4.37055 8.24679C4.27379 8.05686 4.10651 7.90467 3.77194 7.60028L3.57321 7.41948C2.85758 6.76841 2.49977 6.44287 2.54905 6.13194C2.55925 6.06754 2.58018 6.00531 2.61097 5.94784C2.7596 5.67032 3.24632 5.62673 4.21977 5.53955C4.79481 5.48805 5.08233 5.4623 5.31265 5.32348C5.37725 5.28455 5.43793 5.23944 5.49382 5.18878C5.69309 5.0082 5.79959 4.74271 6.01259 4.21171Z" fill="#FFC700" stroke="#FFC700" stroke-width="2"/>
</svg>
